<?xml version="1.0" encoding="utf-8"?>
<svg xmlns="http://www.w3.org/2000/svg" width="1024" height="1024" xmlns:bx="https://boxy-svg.com" viewBox="0 0 1024 1024"><defs/><path fill="#060606" stroke="None" d="M 692 548 C 679.73 527.67 653.8 536.08 634 536 C 614.2 535.92 596.09 545.98 578 552 C 614.49 550.59 654.24 549.27 692 548 Z M 608 436 C 597.01 438.57 587 446.93 587 459 C 587 471.07 593.22 486.03 608 480 C 597.21 467.35 596.03 448.65 608 436 Z M 302 454 C 309.19 444.25 313.05 432.68 303.3 424.7 C 293.55 416.72 293.08 406.33 282.22 400.78 C 271.37 395.23 254.12 396.21 250.32 409.32 C 246.52 422.44 246.86 435.05 253 447 C 254.9 436.38 252.08 425.17 259.75 414.75 C 267.41 404.33 274.63 414.76 282.75 422.25 C 290.87 429.74 281.17 437.77 276.78 446.78 C 272.38 455.78 278.45 472.44 289.78 472.22 C 301.1 472.01 307.38 481.33 317 485 C 318.65 482.09 319.78 479.07 321 476 C 313.89 469.56 309.35 460.34 302 454 Z M 537 380 C 536.88 380.03 536.81 381.92 537 382 C 544.23 379.55 556.28 386.02 562.97 382.97 C 569.66 379.93 569.86 372.84 571 365 C 572.14 357.16 579.46 357.82 588 360 C 581.57 345.1 569.14 339.33 554 342 C 538.86 344.67 523.01 345.27 509.68 351.68 C 496.34 358.09 486.6 361.46 475 370 C 496.25 376.02 515.36 356.6 537 356 C 537.16 364.3 538.63 372.3 541 380 C 539.72 380.24 538.26 379.69 537 380 Z M 620 313 C 598.22 309.91 574.58 305.91 553 303 C 531.42 300.09 507.64 296.04 491.7 310.7 C 475.75 325.35 462.99 328.84 447 342 C 473.45 341.26 498.74 323.67 526.98 328.02 C 555.21 332.38 584.59 335.13 613 339 C 615.49 330.36 618.33 321.83 620 313 Z M 0 900 L 0 1024 L 1024 1024 L 1024 844 C 1000.11 808.51 966.7 787.14 928.23 771.77 C 889.76 756.4 850.92 735.72 812.22 719.78 C 773.53 703.83 734.97 684.43 696 669 C 699.34 656.25 709.99 648.62 712 635 C 714.01 621.38 715.81 603.95 716.67 589.67 C 717.53 575.39 722.72 560.54 722 546 C 721.28 531.46 718.79 516.84 722 502 C 725.21 487.16 723.19 469.94 725 455 C 726.81 440.06 726.92 424.45 722.33 410.67 C 717.74 396.9 718.13 382.76 723.02 370.02 C 727.92 357.29 733.25 345.71 736.07 333.07 C 738.89 320.44 727.01 309.51 724.32 297.68 C 721.63 285.85 711.72 273.62 710.32 261.68 C 708.92 249.74 693.98 237.9 700.75 226.75 C 707.51 215.59 710.11 204.2 714.01 191.01 C 717.91 177.81 708.86 166.77 704.77 154.23 C 700.68 141.69 691.02 135.69 680.75 128.25 C 670.47 120.82 662.81 115.53 653.08 106.92 C 643.36 98.3 633.06 93.24 620.22 89.78 C 607.39 86.31 596.64 80.58 583.22 76.78 C 569.81 72.97 552.9 73.84 538 73 C 522.01 72.113 506.008 71.446 490 71 C 474.83 70.59 456.97 68.45 442 69 C 427.03 69.56 413.09 74.29 399 75 C 384.91 75.71 371.43 79.06 360.23 86.23 C 349.03 93.4 336.77 95.45 326.75 102.75 C 316.72 110.04 309.75 117.84 300.7 125.7 C 291.65 133.55 281.88 140.02 273.7 148.7 C 265.51 157.37 261.45 168.46 255.31 179.3 C 249.16 190.15 242.06 198.74 236.78 210.78 C 231.5 222.81 233.11 239.61 228.93 252.93 C 224.75 266.25 224.4 280.58 226 295 C 227.6 309.42 229.01 326.4 230 341 C 230.99 355.6 234.07 372.65 234 387 C 233.93 401.35 224.77 413.21 226 428 C 227.23 442.79 229.94 455.64 235.69 468.31 C 241.45 480.97 248.06 487.28 255.75 498.25 C 263.44 509.21 276.03 510.11 281 522 C 285.98 533.89 284.09 552.39 287.07 565.93 C 290.05 579.46 289.82 595.94 293 610 C 296.18 624.06 293.1 640.79 297.02 654.98 C 300.95 669.16 297.9 682.09 285.75 689.75 C 273.6 697.41 267.76 703.95 256.23 710.23 C 244.7 716.51 236.49 722.58 225.23 728.23 C 213.97 733.88 204.18 740.52 193.08 746.08 C 181.97 751.63 171.02 757.39 160.08 763.08 C 149.13 768.76 138.62 774.11 127.7 779.7 C 116.77 785.28 105.93 791.43 95.08 797.08 C 84.23 802.72 72.78 808.3 62.23 814.23 C 51.68 820.16 44.12 827.97 36.25 837.25 C 28.37 846.52 21.28 856.01 15.77 866.77 C 10.26 877.54 4.59 889.12 0 900 M 686 219 C 696.19 248.68 706.32 278.47 717 308 C 704.7 310.82 688.78 314.59 676.99 317.99 C 665.2 321.39 658.17 333.68 652.25 344.25 C 646.33 354.81 659 369.3 660.98 381.02 C 662.96 392.75 673.47 404.51 676.31 416.69 C 679.14 428.88 693.91 436.33 689.03 450.03 C 684.14 463.72 667.81 465.13 655.33 460.67 C 642.85 456.22 627.19 466.96 617 472 C 630.7 474.5 646.02 473.3 658.08 479.92 C 670.14 486.54 680.35 472.63 690.7 466.7 C 701.05 460.76 702.91 443 696.08 432.92 C 689.24 422.85 685.31 410.25 679.7 399.31 C 674.08 388.36 669.68 375.44 665 364 C 670.47 363.91 675.56 362.33 681 362 C 680.5 370.05 682 377.56 684 385 C 690.06 386.74 695.75 385.04 702 385 C 704.64 380.38 703.42 368.82 711 372 C 701.45 395.34 717.04 414.82 715 439 C 712.96 463.18 715.6 491.86 710 515 C 701.27 507.16 697.58 494.55 686.75 488.25 C 675.92 481.95 652.35 485.03 640 484 C 627.65 482.97 613.41 489.71 601.98 493.98 C 590.54 498.24 577.56 503.8 567.77 510.77 C 557.98 517.74 547.41 523.64 538.77 531.77 C 530.13 539.9 527.39 555.37 521 565 C 510.43 561.23 500 555.83 489.77 551.23 C 479.54 546.63 468.99 541.76 458.92 537.08 C 448.86 532.4 440.53 525.8 431.75 519.25 C 422.97 512.7 413.74 506.92 405.75 499.25 C 397.76 491.57 386.64 488.04 383.68 476.32 C 380.72 464.6 375.69 454.44 373.07 441.93 C 370.45 429.41 365.36 419.95 364.01 405.99 C 362.66 392.04 345.49 392.07 333 391 C 333.57 410.99 336.14 431.13 337 451 C 337.86 470.87 340.57 492.36 341 512 C 341.43 531.64 346.61 552.12 346.99 571.01 C 347.37 589.89 355.24 602.7 364.75 617.25 C 374.27 631.8 379.61 644.19 388.31 658.7 C 397 673.2 413.1 675.85 427.23 684.77 C 441.36 693.69 454.52 697.15 469.23 706.77 C 483.94 716.39 502.42 719.95 521 720 C 539.58 720.05 562.69 725.72 581.22 721.22 C 599.76 716.72 617.35 714.44 636 711 C 622.51 728.38 610.03 743.91 592.25 758.25 C 574.47 772.58 557.48 783 535.92 792.92 C 514.37 802.85 487.88 809.91 463 812 C 438.12 814.09 405.02 812.57 382.32 803.68 C 359.62 794.79 344.1 786.16 328.08 766.92 C 312.07 747.68 305.37 720.78 310 695 C 314.63 669.21 310.46 638.81 308 612 C 305.54 585.19 299.92 557.84 297 531 C 304.93 539.49 313.94 536.23 323.25 531.25 C 332.56 526.26 331.31 513.52 332 504 C 325.02 512.68 315.79 519.36 305 516 C 294.21 512.64 285.34 509.05 276.75 502.25 C 268.17 495.44 262.52 489.41 256.23 480.77 C 249.94 472.13 245.4 463.51 241.68 453.32 C 237.96 443.14 235.62 428.84 237.78 417.78 C 239.94 406.72 242.03 396.9 251.25 389.25 C 260.47 381.6 275.02 382.55 286.22 383.78 C 297.42 385 304.44 393.44 314 398 C 310.05 371.36 273.78 367.72 253 376 C 251.75 361.33 249.14 344.22 258.25 333.25 C 267.36 322.28 272.42 313.58 280.75 302.75 C 289.08 291.92 295.67 283.92 303.75 272.75 C 311.83 261.59 319.83 253.2 334.02 251.02 C 348.22 248.85 361.14 242.17 375.07 239.07 C 389.01 235.98 402.19 230.52 416 227 C 414.03 218.17 413.03 209.09 412 200 C 427.46 202.1 443.53 201.87 459 204 C 456.21 198.14 450.78 193.44 447 188 C 472.58 192.94 498.26 197.55 524 202 C 522.49 196.73 519.22 192.06 517 187 C 533.32 195.5 544.35 206.61 564.07 206.93 C 583.8 207.24 605.05 211.64 625 213 C 644.95 214.36 665.84 217.86 686 219 M 722 339 C 719.96 346.07 716.74 352.79 715 360 C 705.56 342.83 682.61 351.93 667 353 C 669.91 341.87 680.49 344.24 690 342 C 699.51 339.76 711.56 338.35 722 339 M 690 598 C 678.67 589.91 682.3 570.07 666 572 C 649.7 573.93 634.02 571.53 618 574 C 613.29 587.22 604.21 591.22 592.92 597.92 C 581.64 604.63 570.22 599.4 559 593 C 562.28 582.52 557.77 566.78 565.25 558.25 C 572.73 549.72 578.53 543.8 588.68 539.68 C 598.83 535.55 608.36 532.3 619.03 528.02 C 629.69 523.75 639.41 519.77 652 522 C 664.59 524.23 677.76 517.22 686.75 527.25 C 695.74 537.28 696.6 547.65 695 561 C 693.4 574.35 692.55 585.54 690 598 Z" style=""/></svg>