<svg xmlns="http://www.w3.org/2000/svg" xmlns:v="https://svgstorm.com"
viewBox = "0 0 1024 1024"
width="1024"
height="1024">
<g fill="None" fill-opacity="0.0" stroke="#FEFEFD" stroke-opacity="1.00" stroke-width="0.3"><path d="
M 0.00 900.00 
C 4.59 889.12 10.26 877.54 15.77 866.77 C 21.28 856.01 28.37 846.52 36.25 837.25 C 44.12 827.97 51.68 820.16 62.23 814.23 C 72.78 808.30 84.23 802.72 95.08 797.08 C 105.93 791.43 116.77 785.28 127.70 779.70 C 138.62 774.11 149.13 768.76 160.08 763.08 C 171.02 757.39 181.97 751.63 193.08 746.08 C 204.18 740.52 213.97 733.88 225.23 728.23 C 236.49 722.58 244.70 716.51 256.23 710.23 C 267.76 703.95 273.60 697.41 285.75 689.75 C 297.90 682.09 300.95 669.16 297.02 654.98 C 293.10 640.79 296.18 624.06 293.00 610.00 C 289.82 595.94 290.05 579.46 287.07 565.93 C 284.09 552.39 285.98 533.89 281.00 522.00 C 276.03 510.11 263.44 509.21 255.75 498.25 C 248.06 487.28 241.45 480.97 235.69 468.31 C 229.94 455.64 227.23 442.79 226.00 428.00 C 224.77 413.21 233.93 401.35 234.00 387.00 C 234.07 372.65 230.99 355.60 230.00 341.00 C 229.01 326.40 227.60 309.42 226.00 295.00 C 224.40 280.58 224.75 266.25 228.93 252.93 C 233.11 239.61 231.50 222.81 236.78 210.78 C 242.06 198.74 249.16 190.15 255.31 179.30 C 261.45 168.46 265.51 157.37 273.70 148.70 C 281.88 140.02 291.65 133.55 300.70 125.70 C 309.75 117.84 316.72 110.04 326.75 102.75 C 336.77 95.45 349.03 93.40 360.23 86.23 C 371.43 79.06 384.91 75.71 399.00 75.00 C 413.09 74.29 427.03 69.56 442.00 69.00 C 456.97 68.45 474.83 70.59 490.00 71.00 C 505.17 71.41 523.10 72.16 538.00 73.00 C 552.90 73.84 569.81 72.97 583.22 76.78 C 596.64 80.58 607.39 86.31 620.22 89.78 C 633.06 93.24 643.36 98.30 653.08 106.92 C 662.81 115.53 670.47 120.82 680.75 128.25 C 691.02 135.69 700.68 141.69 704.77 154.23 C 708.86 166.77 717.91 177.81 714.01 191.01 C 710.11 204.20 707.51 215.59 700.75 226.75 C 693.98 237.90 708.92 249.74 710.32 261.68 C 711.72 273.62 721.63 285.85 724.32 297.68 C 727.01 309.51 738.89 320.44 736.07 333.07 C 733.25 345.71 727.92 357.29 723.02 370.02 C 718.13 382.76 717.74 396.90 722.33 410.67 C 726.92 424.45 726.81 440.06 725.00 455.00 C 723.19 469.94 725.21 487.16 722.00 502.00 C 718.79 516.84 721.28 531.46 722.00 546.00 C 722.72 560.54 717.53 575.39 716.67 589.67 C 715.81 603.95 714.01 621.38 712.00 635.00 C 709.99 648.62 699.34 656.25 696.00 669.00
C 734.97 684.43 773.53 703.83 812.22 719.78 C 850.92 735.72 889.76 756.40 928.23 771.77 C 966.70 787.14 1000.11 808.51 1024.00 844.00
L 1024.00 0.00
L 0.00 0.00
L 0.00 900.00 Z"/>
</g>
<g fill="None" fill-opacity="0.0" stroke="#080808" stroke-opacity="1.00" stroke-width="0.3"><path d="
M 0.00 900.00 
L 0.00 1024.00
L 1024.00 1024.00
L 1024.00 844.00
C 1000.11 808.51 966.70 787.14 928.23 771.77 C 889.76 756.40 850.92 735.72 812.22 719.78 C 773.53 703.83 734.97 684.43 696.00 669.00
C 699.34 656.25 709.99 648.62 712.00 635.00 C 714.01 621.38 715.81 603.95 716.67 589.67 C 717.53 575.39 722.72 560.54 722.00 546.00 C 721.28 531.46 718.79 516.84 722.00 502.00 C 725.21 487.16 723.19 469.94 725.00 455.00 C 726.81 440.06 726.92 424.45 722.33 410.67 C 717.74 396.90 718.13 382.76 723.02 370.02 C 727.92 357.29 733.25 345.71 736.07 333.07 C 738.89 320.44 727.01 309.51 724.32 297.68 C 721.63 285.85 711.72 273.62 710.32 261.68 C 708.92 249.74 693.98 237.90 700.75 226.75 C 707.51 215.59 710.11 204.20 714.01 191.01 C 717.91 177.81 708.86 166.77 704.77 154.23 C 700.68 141.69 691.02 135.69 680.75 128.25 C 670.47 120.82 662.81 115.53 653.08 106.92 C 643.36 98.30 633.06 93.24 620.22 89.78 C 607.39 86.31 596.64 80.58 583.22 76.78 C 569.81 72.97 552.90 73.84 538.00 73.00 C 523.10 72.16 505.17 71.41 490.00 71.00 C 474.83 70.59 456.97 68.45 442.00 69.00 C 427.03 69.56 413.09 74.29 399.00 75.00 C 384.91 75.71 371.43 79.06 360.23 86.23 C 349.03 93.40 336.77 95.45 326.75 102.75 C 316.72 110.04 309.75 117.84 300.70 125.70 C 291.65 133.55 281.88 140.02 273.70 148.70 C 265.51 157.37 261.45 168.46 255.31 179.30 C 249.16 190.15 242.06 198.74 236.78 210.78 C 231.50 222.81 233.11 239.61 228.93 252.93 C 224.75 266.25 224.40 280.58 226.00 295.00 C 227.60 309.42 229.01 326.40 230.00 341.00 C 230.99 355.60 234.07 372.65 234.00 387.00 C 233.93 401.35 224.77 413.21 226.00 428.00 C 227.23 442.79 229.94 455.64 235.69 468.31 C 241.45 480.97 248.06 487.28 255.75 498.25 C 263.44 509.21 276.03 510.11 281.00 522.00 C 285.98 533.89 284.09 552.39 287.07 565.93 C 290.05 579.46 289.82 595.94 293.00 610.00 C 296.18 624.06 293.10 640.79 297.02 654.98 C 300.95 669.16 297.90 682.09 285.75 689.75 C 273.60 697.41 267.76 703.95 256.23 710.23 C 244.70 716.51 236.49 722.58 225.23 728.23 C 213.97 733.88 204.18 740.52 193.08 746.08 C 181.97 751.63 171.02 757.39 160.08 763.08 C 149.13 768.76 138.62 774.11 127.70 779.70 C 116.77 785.28 105.93 791.43 95.08 797.08 C 84.23 802.72 72.78 808.30 62.23 814.23 C 51.68 820.16 44.12 827.97 36.25 837.25 C 28.37 846.52 21.28 856.01 15.77 866.77 C 10.26 877.54 4.59 889.12 0.00 900.00
M 686.00 219.00 
C 696.19 248.68 706.32 278.47 717.00 308.00
C 704.70 310.82 688.78 314.59 676.99 317.99 C 665.20 321.39 658.17 333.68 652.25 344.25 C 646.33 354.81 659.00 369.30 660.98 381.02 C 662.96 392.75 673.47 404.51 676.31 416.69 C 679.14 428.88 693.91 436.33 689.03 450.03 C 684.14 463.72 667.81 465.13 655.33 460.67 C 642.85 456.22 627.19 466.96 617.00 472.00
C 630.70 474.50 646.02 473.30 658.08 479.92 C 670.14 486.54 680.35 472.63 690.70 466.70 C 701.05 460.76 702.91 443.00 696.08 432.92 C 689.24 422.85 685.31 410.25 679.70 399.31 C 674.08 388.36 669.68 375.44 665.00 364.00
C 670.47 363.91 675.56 362.33 681.00 362.00
C 680.50 370.05 682.00 377.56 684.00 385.00
C 690.06 386.74 695.75 385.04 702.00 385.00
C 704.64 380.38 703.42 368.82 711.00 372.00
C 701.45 395.34 717.04 414.82 715.00 439.00 C 712.96 463.18 715.60 491.86 710.00 515.00
C 701.27 507.16 697.58 494.55 686.75 488.25 C 675.92 481.95 652.35 485.03 640.00 484.00 C 627.65 482.97 613.41 489.71 601.98 493.98 C 590.54 498.24 577.56 503.80 567.77 510.77 C 557.98 517.74 547.41 523.64 538.77 531.77 C 530.13 539.90 527.39 555.37 521.00 565.00
C 510.43 561.23 500.00 555.83 489.77 551.23 C 479.54 546.63 468.99 541.76 458.92 537.08 C 448.86 532.40 440.53 525.80 431.75 519.25 C 422.97 512.70 413.74 506.92 405.75 499.25 C 397.76 491.57 386.64 488.04 383.68 476.32 C 380.72 464.60 375.69 454.44 373.07 441.93 C 370.45 429.41 365.36 419.95 364.01 405.99 C 362.66 392.04 345.49 392.07 333.00 391.00
C 333.57 410.99 336.14 431.13 337.00 451.00 C 337.86 470.87 340.57 492.36 341.00 512.00 C 341.43 531.64 346.61 552.12 346.99 571.01 C 347.37 589.89 355.24 602.70 364.75 617.25 C 374.27 631.80 379.61 644.19 388.31 658.70 C 397.00 673.20 413.10 675.85 427.23 684.77 C 441.36 693.69 454.52 697.15 469.23 706.77 C 483.94 716.39 502.42 719.95 521.00 720.00 C 539.58 720.05 562.69 725.72 581.22 721.22 C 599.76 716.72 617.35 714.44 636.00 711.00
C 622.51 728.38 610.03 743.91 592.25 758.25 C 574.47 772.58 557.48 783.00 535.92 792.92 C 514.37 802.85 487.88 809.91 463.00 812.00 C 438.12 814.09 405.02 812.57 382.32 803.68 C 359.62 794.79 344.10 786.16 328.08 766.92 C 312.07 747.68 305.37 720.78 310.00 695.00 C 314.63 669.21 310.46 638.81 308.00 612.00 C 305.54 585.19 299.92 557.84 297.00 531.00
C 304.93 539.49 313.94 536.23 323.25 531.25 C 332.56 526.26 331.31 513.52 332.00 504.00
C 325.02 512.68 315.79 519.36 305.00 516.00 C 294.21 512.64 285.34 509.05 276.75 502.25 C 268.17 495.44 262.52 489.41 256.23 480.77 C 249.94 472.13 245.40 463.51 241.68 453.32 C 237.96 443.14 235.62 428.84 237.78 417.78 C 239.94 406.72 242.03 396.90 251.25 389.25 C 260.47 381.60 275.02 382.55 286.22 383.78 C 297.42 385.00 304.44 393.44 314.00 398.00
C 310.05 371.36 273.78 367.72 253.00 376.00
C 251.75 361.33 249.14 344.22 258.25 333.25 C 267.36 322.28 272.42 313.58 280.75 302.75 C 289.08 291.92 295.67 283.92 303.75 272.75 C 311.83 261.59 319.83 253.20 334.02 251.02 C 348.22 248.85 361.14 242.17 375.07 239.07 C 389.01 235.98 402.19 230.52 416.00 227.00
C 414.03 218.17 413.03 209.09 412.00 200.00
C 427.46 202.10 443.53 201.87 459.00 204.00
C 456.21 198.14 450.78 193.44 447.00 188.00
C 472.58 192.94 498.26 197.55 524.00 202.00
C 522.49 196.73 519.22 192.06 517.00 187.00
C 533.32 195.50 544.35 206.61 564.07 206.93 C 583.80 207.24 605.05 211.64 625.00 213.00 C 644.95 214.36 665.84 217.86 686.00 219.00
M 722.00 339.00 
C 719.96 346.07 716.74 352.79 715.00 360.00
C 705.56 342.83 682.61 351.93 667.00 353.00
C 669.91 341.87 680.49 344.24 690.00 342.00 C 699.51 339.76 711.56 338.35 722.00 339.00
M 690.00 598.00 
C 678.67 589.91 682.30 570.07 666.00 572.00 C 649.70 573.93 634.02 571.53 618.00 574.00
C 613.29 587.22 604.21 591.22 592.92 597.92 C 581.64 604.63 570.22 599.40 559.00 593.00
C 562.28 582.52 557.77 566.78 565.25 558.25 C 572.73 549.72 578.53 543.80 588.68 539.68 C 598.83 535.55 608.36 532.30 619.03 528.02 C 629.69 523.75 639.41 519.77 652.00 522.00 C 664.59 524.23 677.76 517.22 686.75 527.25 C 695.74 537.28 696.60 547.65 695.00 561.00 C 693.40 574.35 692.55 585.54 690.00 598.00 Z"/>
</g>
<g fill="None" fill-opacity="0.0" stroke="#FCFCFB" stroke-opacity="1.00" stroke-width="0.3"><path d="
M 686.00 219.00 
C 665.84 217.86 644.95 214.36 625.00 213.00 C 605.05 211.64 583.80 207.24 564.07 206.93 C 544.35 206.61 533.32 195.50 517.00 187.00
C 519.22 192.06 522.49 196.73 524.00 202.00
C 498.26 197.55 472.58 192.94 447.00 188.00
C 450.78 193.44 456.21 198.14 459.00 204.00
C 443.53 201.87 427.46 202.10 412.00 200.00
C 413.03 209.09 414.03 218.17 416.00 227.00
C 402.19 230.52 389.01 235.98 375.07 239.07 C 361.14 242.17 348.22 248.85 334.02 251.02 C 319.83 253.20 311.83 261.59 303.75 272.75 C 295.67 283.92 289.08 291.92 280.75 302.75 C 272.42 313.58 267.36 322.28 258.25 333.25 C 249.14 344.22 251.75 361.33 253.00 376.00
C 273.78 367.72 310.05 371.36 314.00 398.00
C 304.44 393.44 297.42 385.00 286.22 383.78 C 275.02 382.55 260.47 381.60 251.25 389.25 C 242.03 396.90 239.94 406.72 237.78 417.78 C 235.62 428.84 237.96 443.14 241.68 453.32 C 245.40 463.51 249.94 472.13 256.23 480.77 C 262.52 489.41 268.17 495.44 276.75 502.25 C 285.34 509.05 294.21 512.64 305.00 516.00 C 315.79 519.36 325.02 512.68 332.00 504.00
C 331.31 513.52 332.56 526.26 323.25 531.25 C 313.94 536.23 304.93 539.49 297.00 531.00
C 299.92 557.84 305.54 585.19 308.00 612.00 C 310.46 638.81 314.63 669.21 310.00 695.00 C 305.37 720.78 312.07 747.68 328.08 766.92 C 344.10 786.16 359.62 794.79 382.32 803.68 C 405.02 812.57 438.12 814.09 463.00 812.00 C 487.88 809.91 514.37 802.85 535.92 792.92 C 557.48 783.00 574.47 772.58 592.25 758.25 C 610.03 743.91 622.51 728.38 636.00 711.00
C 617.35 714.44 599.76 716.72 581.22 721.22 C 562.69 725.72 539.58 720.05 521.00 720.00 C 502.42 719.95 483.94 716.39 469.23 706.77 C 454.52 697.15 441.36 693.69 427.23 684.77 C 413.10 675.85 397.00 673.20 388.31 658.70 C 379.61 644.19 374.27 631.80 364.75 617.25 C 355.24 602.70 347.37 589.89 346.99 571.01 C 346.61 552.12 341.43 531.64 341.00 512.00 C 340.57 492.36 337.86 470.87 337.00 451.00 C 336.14 431.13 333.57 410.99 333.00 391.00
C 345.49 392.07 362.66 392.04 364.01 405.99 C 365.36 419.95 370.45 429.41 373.07 441.93 C 375.69 454.44 380.72 464.60 383.68 476.32 C 386.64 488.04 397.76 491.57 405.75 499.25 C 413.74 506.92 422.97 512.70 431.75 519.25 C 440.53 525.80 448.86 532.40 458.92 537.08 C 468.99 541.76 479.54 546.63 489.77 551.23 C 500.00 555.83 510.43 561.23 521.00 565.00
C 527.39 555.37 530.13 539.90 538.77 531.77 C 547.41 523.64 557.98 517.74 567.77 510.77 C 577.56 503.80 590.54 498.24 601.98 493.98 C 613.41 489.71 627.65 482.97 640.00 484.00 C 652.35 485.03 675.92 481.95 686.75 488.25 C 697.58 494.55 701.27 507.16 710.00 515.00
C 715.60 491.86 712.96 463.18 715.00 439.00 C 717.04 414.82 701.45 395.34 711.00 372.00
C 703.42 368.82 704.64 380.38 702.00 385.00
C 695.75 385.04 690.06 386.74 684.00 385.00
C 682.00 377.56 680.50 370.05 681.00 362.00
C 675.56 362.33 670.47 363.91 665.00 364.00
C 669.68 375.44 674.08 388.36 679.70 399.31 C 685.31 410.25 689.24 422.85 696.08 432.92 C 702.91 443.00 701.05 460.76 690.70 466.70 C 680.35 472.63 670.14 486.54 658.08 479.92 C 646.02 473.30 630.70 474.50 617.00 472.00
C 627.19 466.96 642.85 456.22 655.33 460.67 C 667.81 465.13 684.14 463.72 689.03 450.03 C 693.91 436.33 679.14 428.88 676.31 416.69 C 673.47 404.51 662.96 392.75 660.98 381.02 C 659.00 369.30 646.33 354.81 652.25 344.25 C 658.17 333.68 665.20 321.39 676.99 317.99 C 688.78 314.59 704.70 310.82 717.00 308.00
C 706.32 278.47 696.19 248.68 686.00 219.00
M 620.00 313.00 
C 618.33 321.83 615.49 330.36 613.00 339.00
C 584.59 335.13 555.21 332.38 526.98 328.02 C 498.74 323.67 473.45 341.26 447.00 342.00
C 462.99 328.84 475.75 325.35 491.70 310.70 C 507.64 296.04 531.42 300.09 553.00 303.00 C 574.58 305.91 598.22 309.91 620.00 313.00
M 537.00 382.00 
C 534.15 381.81 531.90 381.01 529.00 381.00
C 530.77 378.97 534.48 380.47 537.00 380.00
C 538.26 379.69 539.72 380.24 541.00 380.00
C 538.63 372.30 537.16 364.30 537.00 356.00
C 515.36 356.60 496.25 376.02 475.00 370.00
C 486.60 361.46 496.34 358.09 509.68 351.68 C 523.01 345.27 538.86 344.67 554.00 342.00 C 569.14 339.33 581.57 345.10 588.00 360.00
C 579.46 357.82 572.14 357.16 571.00 365.00 C 569.86 372.84 569.66 379.93 562.97 382.97 C 556.28 386.02 544.23 379.55 537.00 382.00
M 302.00 454.00 
C 309.35 460.34 313.89 469.56 321.00 476.00
C 319.78 479.07 318.65 482.09 317.00 485.00
C 307.38 481.33 301.10 472.01 289.78 472.22 C 278.45 472.44 272.38 455.78 276.78 446.78 C 281.17 437.77 290.87 429.74 282.75 422.25 C 274.63 414.76 267.41 404.33 259.75 414.75 C 252.08 425.17 254.90 436.38 253.00 447.00
C 246.86 435.05 246.52 422.44 250.32 409.32 C 254.12 396.21 271.37 395.23 282.22 400.78 C 293.08 406.33 293.55 416.72 303.30 424.70 C 313.05 432.68 309.19 444.25 302.00 454.00
M 608.00 436.00 
C 596.03 448.65 597.21 467.35 608.00 480.00
C 593.22 486.03 587.00 471.07 587.00 459.00 C 587.00 446.93 597.01 438.57 608.00 436.00 Z"/>
</g>
<g fill="None" fill-opacity="0.0" stroke="#080807" stroke-opacity="1.00" stroke-width="0.3"><path d="
M 620.00 313.00 
C 598.22 309.91 574.58 305.91 553.00 303.00 C 531.42 300.09 507.64 296.04 491.70 310.70 C 475.75 325.35 462.99 328.84 447.00 342.00
C 473.45 341.26 498.74 323.67 526.98 328.02 C 555.21 332.38 584.59 335.13 613.00 339.00
C 615.49 330.36 618.33 321.83 620.00 313.00 Z"/>
</g>
<g fill="None" fill-opacity="0.0" stroke="#F8F7F7" stroke-opacity="1.00" stroke-width="0.3"><path d="
M 722.00 339.00 
C 711.56 338.35 699.51 339.76 690.00 342.00 C 680.49 344.24 669.91 341.87 667.00 353.00
C 682.61 351.93 705.56 342.83 715.00 360.00
C 716.74 352.79 719.96 346.07 722.00 339.00 Z"/>
</g>
<g fill="None" fill-opacity="0.0" stroke="#070807" stroke-opacity="1.00" stroke-width="0.3"><path d="
M 537.00 380.00 
C 536.88 380.03 536.81 381.92 537.00 382.00
C 544.23 379.55 556.28 386.02 562.97 382.97 C 569.66 379.93 569.86 372.84 571.00 365.00 C 572.14 357.16 579.46 357.82 588.00 360.00
C 581.57 345.10 569.14 339.33 554.00 342.00 C 538.86 344.67 523.01 345.27 509.68 351.68 C 496.34 358.09 486.60 361.46 475.00 370.00
C 496.25 376.02 515.36 356.60 537.00 356.00
C 537.16 364.30 538.63 372.30 541.00 380.00
C 539.72 380.24 538.26 379.69 537.00 380.00 Z"/>
</g>
<g fill="None" fill-opacity="0.0" stroke="#545655" stroke-opacity="1.00" stroke-width="0.3"><path d="
M 537.00 382.00 
C 536.81 381.92 536.88 380.03 537.00 380.00
C 534.48 380.47 530.77 378.97 529.00 381.00
C 531.90 381.01 534.15 381.81 537.00 382.00 Z"/>
</g>
<g fill="None" fill-opacity="0.0" stroke="#070707" stroke-opacity="1.00" stroke-width="0.3"><path d="
M 302.00 454.00 
C 309.19 444.25 313.05 432.68 303.30 424.70 C 293.55 416.72 293.08 406.33 282.22 400.78 C 271.37 395.23 254.12 396.21 250.32 409.32 C 246.52 422.44 246.86 435.05 253.00 447.00
C 254.90 436.38 252.08 425.17 259.75 414.75 C 267.41 404.33 274.63 414.76 282.75 422.25 C 290.87 429.74 281.17 437.77 276.78 446.78 C 272.38 455.78 278.45 472.44 289.78 472.22 C 301.10 472.01 307.38 481.33 317.00 485.00
C 318.65 482.09 319.78 479.07 321.00 476.00
C 313.89 469.56 309.35 460.34 302.00 454.00 Z"/>
</g>
<g fill="None" fill-opacity="0.0" stroke="#060605" stroke-opacity="1.00" stroke-width="0.3"><path d="
M 608.00 436.00 
C 597.01 438.57 587.00 446.93 587.00 459.00 C 587.00 471.07 593.22 486.03 608.00 480.00
C 597.21 467.35 596.03 448.65 608.00 436.00 Z"/>
</g>
<g fill="None" fill-opacity="0.0" stroke="#FBFBFA" stroke-opacity="1.00" stroke-width="0.3"><path d="
M 690.00 598.00 
C 692.55 585.54 693.40 574.35 695.00 561.00 C 696.60 547.65 695.74 537.28 686.75 527.25 C 677.76 517.22 664.59 524.23 652.00 522.00 C 639.41 519.77 629.69 523.75 619.03 528.02 C 608.36 532.30 598.83 535.55 588.68 539.68 C 578.53 543.80 572.73 549.72 565.25 558.25 C 557.77 566.78 562.28 582.52 559.00 593.00
C 570.22 599.40 581.64 604.63 592.92 597.92 C 604.21 591.22 613.29 587.22 618.00 574.00
C 634.02 571.53 649.70 573.93 666.00 572.00 C 682.30 570.07 678.67 589.91 690.00 598.00
M 692.00 548.00 
C 654.24 549.27 614.49 550.59 578.00 552.00
C 596.09 545.98 614.20 535.92 634.00 536.00 C 653.80 536.08 679.73 527.67 692.00 548.00 Z"/>
</g>
<g fill="None" fill-opacity="0.0" stroke="#060606" stroke-opacity="1.00" stroke-width="0.3"><path d="
M 692.00 548.00 
C 679.73 527.67 653.80 536.08 634.00 536.00 C 614.20 535.92 596.09 545.98 578.00 552.00
C 614.49 550.59 654.24 549.27 692.00 548.00 Z"/>
</g>
<g fill="#FEFEFD" fill-opacity="1.00" stroke="None">
<path d="
M 0.00 900.00 
C 4.59 889.12 10.26 877.54 15.77 866.77 C 21.28 856.01 28.37 846.52 36.25 837.25 C 44.12 827.97 51.68 820.16 62.23 814.23 C 72.78 808.30 84.23 802.72 95.08 797.08 C 105.93 791.43 116.77 785.28 127.70 779.70 C 138.62 774.11 149.13 768.76 160.08 763.08 C 171.02 757.39 181.97 751.63 193.08 746.08 C 204.18 740.52 213.97 733.88 225.23 728.23 C 236.49 722.58 244.70 716.51 256.23 710.23 C 267.76 703.95 273.60 697.41 285.75 689.75 C 297.90 682.09 300.95 669.16 297.02 654.98 C 293.10 640.79 296.18 624.06 293.00 610.00 C 289.82 595.94 290.05 579.46 287.07 565.93 C 284.09 552.39 285.98 533.89 281.00 522.00 C 276.03 510.11 263.44 509.21 255.75 498.25 C 248.06 487.28 241.45 480.97 235.69 468.31 C 229.94 455.64 227.23 442.79 226.00 428.00 C 224.77 413.21 233.93 401.35 234.00 387.00 C 234.07 372.65 230.99 355.60 230.00 341.00 C 229.01 326.40 227.60 309.42 226.00 295.00 C 224.40 280.58 224.75 266.25 228.93 252.93 C 233.11 239.61 231.50 222.81 236.78 210.78 C 242.06 198.74 249.16 190.15 255.31 179.30 C 261.45 168.46 265.51 157.37 273.70 148.70 C 281.88 140.02 291.65 133.55 300.70 125.70 C 309.75 117.84 316.72 110.04 326.75 102.75 C 336.77 95.45 349.03 93.40 360.23 86.23 C 371.43 79.06 384.91 75.71 399.00 75.00 C 413.09 74.29 427.03 69.56 442.00 69.00 C 456.97 68.45 474.83 70.59 490.00 71.00 C 505.17 71.41 523.10 72.16 538.00 73.00 C 552.90 73.84 569.81 72.97 583.22 76.78 C 596.64 80.58 607.39 86.31 620.22 89.78 C 633.06 93.24 643.36 98.30 653.08 106.92 C 662.81 115.53 670.47 120.82 680.75 128.25 C 691.02 135.69 700.68 141.69 704.77 154.23 C 708.86 166.77 717.91 177.81 714.01 191.01 C 710.11 204.20 707.51 215.59 700.75 226.75 C 693.98 237.90 708.92 249.74 710.32 261.68 C 711.72 273.62 721.63 285.85 724.32 297.68 C 727.01 309.51 738.89 320.44 736.07 333.07 C 733.25 345.71 727.92 357.29 723.02 370.02 C 718.13 382.76 717.74 396.90 722.33 410.67 C 726.92 424.45 726.81 440.06 725.00 455.00 C 723.19 469.94 725.21 487.16 722.00 502.00 C 718.79 516.84 721.28 531.46 722.00 546.00 C 722.72 560.54 717.53 575.39 716.67 589.67 C 715.81 603.95 714.01 621.38 712.00 635.00 C 709.99 648.62 699.34 656.25 696.00 669.00
C 734.97 684.43 773.53 703.83 812.22 719.78 C 850.92 735.72 889.76 756.40 928.23 771.77 C 966.70 787.14 1000.11 808.51 1024.00 844.00
L 1024.00 0.00
L 0.00 0.00
L 0.00 900.00 Z"/>
</g>
<g fill="#080808" fill-opacity="1.00" stroke="None">
<path d="
M 0.00 900.00 
L 0.00 1024.00
L 1024.00 1024.00
L 1024.00 844.00
C 1000.11 808.51 966.70 787.14 928.23 771.77 C 889.76 756.40 850.92 735.72 812.22 719.78 C 773.53 703.83 734.97 684.43 696.00 669.00
C 699.34 656.25 709.99 648.62 712.00 635.00 C 714.01 621.38 715.81 603.95 716.67 589.67 C 717.53 575.39 722.72 560.54 722.00 546.00 C 721.28 531.46 718.79 516.84 722.00 502.00 C 725.21 487.16 723.19 469.94 725.00 455.00 C 726.81 440.06 726.92 424.45 722.33 410.67 C 717.74 396.90 718.13 382.76 723.02 370.02 C 727.92 357.29 733.25 345.71 736.07 333.07 C 738.89 320.44 727.01 309.51 724.32 297.68 C 721.63 285.85 711.72 273.62 710.32 261.68 C 708.92 249.74 693.98 237.90 700.75 226.75 C 707.51 215.59 710.11 204.20 714.01 191.01 C 717.91 177.81 708.86 166.77 704.77 154.23 C 700.68 141.69 691.02 135.69 680.75 128.25 C 670.47 120.82 662.81 115.53 653.08 106.92 C 643.36 98.30 633.06 93.24 620.22 89.78 C 607.39 86.31 596.64 80.58 583.22 76.78 C 569.81 72.97 552.90 73.84 538.00 73.00 C 523.10 72.16 505.17 71.41 490.00 71.00 C 474.83 70.59 456.97 68.45 442.00 69.00 C 427.03 69.56 413.09 74.29 399.00 75.00 C 384.91 75.71 371.43 79.06 360.23 86.23 C 349.03 93.40 336.77 95.45 326.75 102.75 C 316.72 110.04 309.75 117.84 300.70 125.70 C 291.65 133.55 281.88 140.02 273.70 148.70 C 265.51 157.37 261.45 168.46 255.31 179.30 C 249.16 190.15 242.06 198.74 236.78 210.78 C 231.50 222.81 233.11 239.61 228.93 252.93 C 224.75 266.25 224.40 280.58 226.00 295.00 C 227.60 309.42 229.01 326.40 230.00 341.00 C 230.99 355.60 234.07 372.65 234.00 387.00 C 233.93 401.35 224.77 413.21 226.00 428.00 C 227.23 442.79 229.94 455.64 235.69 468.31 C 241.45 480.97 248.06 487.28 255.75 498.25 C 263.44 509.21 276.03 510.11 281.00 522.00 C 285.98 533.89 284.09 552.39 287.07 565.93 C 290.05 579.46 289.82 595.94 293.00 610.00 C 296.18 624.06 293.10 640.79 297.02 654.98 C 300.95 669.16 297.90 682.09 285.75 689.75 C 273.60 697.41 267.76 703.95 256.23 710.23 C 244.70 716.51 236.49 722.58 225.23 728.23 C 213.97 733.88 204.18 740.52 193.08 746.08 C 181.97 751.63 171.02 757.39 160.08 763.08 C 149.13 768.76 138.62 774.11 127.70 779.70 C 116.77 785.28 105.93 791.43 95.08 797.08 C 84.23 802.72 72.78 808.30 62.23 814.23 C 51.68 820.16 44.12 827.97 36.25 837.25 C 28.37 846.52 21.28 856.01 15.77 866.77 C 10.26 877.54 4.59 889.12 0.00 900.00
M 686.00 219.00 
C 696.19 248.68 706.32 278.47 717.00 308.00
C 704.70 310.82 688.78 314.59 676.99 317.99 C 665.20 321.39 658.17 333.68 652.25 344.25 C 646.33 354.81 659.00 369.30 660.98 381.02 C 662.96 392.75 673.47 404.51 676.31 416.69 C 679.14 428.88 693.91 436.33 689.03 450.03 C 684.14 463.72 667.81 465.13 655.33 460.67 C 642.85 456.22 627.19 466.96 617.00 472.00
C 630.70 474.50 646.02 473.30 658.08 479.92 C 670.14 486.54 680.35 472.63 690.70 466.70 C 701.05 460.76 702.91 443.00 696.08 432.92 C 689.24 422.85 685.31 410.25 679.70 399.31 C 674.08 388.36 669.68 375.44 665.00 364.00
C 670.47 363.91 675.56 362.33 681.00 362.00
C 680.50 370.05 682.00 377.56 684.00 385.00
C 690.06 386.74 695.75 385.04 702.00 385.00
C 704.64 380.38 703.42 368.82 711.00 372.00
C 701.45 395.34 717.04 414.82 715.00 439.00 C 712.96 463.18 715.60 491.86 710.00 515.00
C 701.27 507.16 697.58 494.55 686.75 488.25 C 675.92 481.95 652.35 485.03 640.00 484.00 C 627.65 482.97 613.41 489.71 601.98 493.98 C 590.54 498.24 577.56 503.80 567.77 510.77 C 557.98 517.74 547.41 523.64 538.77 531.77 C 530.13 539.90 527.39 555.37 521.00 565.00
C 510.43 561.23 500.00 555.83 489.77 551.23 C 479.54 546.63 468.99 541.76 458.92 537.08 C 448.86 532.40 440.53 525.80 431.75 519.25 C 422.97 512.70 413.74 506.92 405.75 499.25 C 397.76 491.57 386.64 488.04 383.68 476.32 C 380.72 464.60 375.69 454.44 373.07 441.93 C 370.45 429.41 365.36 419.95 364.01 405.99 C 362.66 392.04 345.49 392.07 333.00 391.00
C 333.57 410.99 336.14 431.13 337.00 451.00 C 337.86 470.87 340.57 492.36 341.00 512.00 C 341.43 531.64 346.61 552.12 346.99 571.01 C 347.37 589.89 355.24 602.70 364.75 617.25 C 374.27 631.80 379.61 644.19 388.31 658.70 C 397.00 673.20 413.10 675.85 427.23 684.77 C 441.36 693.69 454.52 697.15 469.23 706.77 C 483.94 716.39 502.42 719.95 521.00 720.00 C 539.58 720.05 562.69 725.72 581.22 721.22 C 599.76 716.72 617.35 714.44 636.00 711.00
C 622.51 728.38 610.03 743.91 592.25 758.25 C 574.47 772.58 557.48 783.00 535.92 792.92 C 514.37 802.85 487.88 809.91 463.00 812.00 C 438.12 814.09 405.02 812.57 382.32 803.68 C 359.62 794.79 344.10 786.16 328.08 766.92 C 312.07 747.68 305.37 720.78 310.00 695.00 C 314.63 669.21 310.46 638.81 308.00 612.00 C 305.54 585.19 299.92 557.84 297.00 531.00
C 304.93 539.49 313.94 536.23 323.25 531.25 C 332.56 526.26 331.31 513.52 332.00 504.00
C 325.02 512.68 315.79 519.36 305.00 516.00 C 294.21 512.64 285.34 509.05 276.75 502.25 C 268.17 495.44 262.52 489.41 256.23 480.77 C 249.94 472.13 245.40 463.51 241.68 453.32 C 237.96 443.14 235.62 428.84 237.78 417.78 C 239.94 406.72 242.03 396.90 251.25 389.25 C 260.47 381.60 275.02 382.55 286.22 383.78 C 297.42 385.00 304.44 393.44 314.00 398.00
C 310.05 371.36 273.78 367.72 253.00 376.00
C 251.75 361.33 249.14 344.22 258.25 333.25 C 267.36 322.28 272.42 313.58 280.75 302.75 C 289.08 291.92 295.67 283.92 303.75 272.75 C 311.83 261.59 319.83 253.20 334.02 251.02 C 348.22 248.85 361.14 242.17 375.07 239.07 C 389.01 235.98 402.19 230.52 416.00 227.00
C 414.03 218.17 413.03 209.09 412.00 200.00
C 427.46 202.10 443.53 201.87 459.00 204.00
C 456.21 198.14 450.78 193.44 447.00 188.00
C 472.58 192.94 498.26 197.55 524.00 202.00
C 522.49 196.73 519.22 192.06 517.00 187.00
C 533.32 195.50 544.35 206.61 564.07 206.93 C 583.80 207.24 605.05 211.64 625.00 213.00 C 644.95 214.36 665.84 217.86 686.00 219.00
M 722.00 339.00 
C 719.96 346.07 716.74 352.79 715.00 360.00
C 705.56 342.83 682.61 351.93 667.00 353.00
C 669.91 341.87 680.49 344.24 690.00 342.00 C 699.51 339.76 711.56 338.35 722.00 339.00
M 690.00 598.00 
C 678.67 589.91 682.30 570.07 666.00 572.00 C 649.70 573.93 634.02 571.53 618.00 574.00
C 613.29 587.22 604.21 591.22 592.92 597.92 C 581.64 604.63 570.22 599.40 559.00 593.00
C 562.28 582.52 557.77 566.78 565.25 558.25 C 572.73 549.72 578.53 543.80 588.68 539.68 C 598.83 535.55 608.36 532.30 619.03 528.02 C 629.69 523.75 639.41 519.77 652.00 522.00 C 664.59 524.23 677.76 517.22 686.75 527.25 C 695.74 537.28 696.60 547.65 695.00 561.00 C 693.40 574.35 692.55 585.54 690.00 598.00 Z"/>
</g>
<g fill="#FCFCFB" fill-opacity="1.00" stroke="None">
<path d="
M 686.00 219.00 
C 665.84 217.86 644.95 214.36 625.00 213.00 C 605.05 211.64 583.80 207.24 564.07 206.93 C 544.35 206.61 533.32 195.50 517.00 187.00
C 519.22 192.06 522.49 196.73 524.00 202.00
C 498.26 197.55 472.58 192.94 447.00 188.00
C 450.78 193.44 456.21 198.14 459.00 204.00
C 443.53 201.87 427.46 202.10 412.00 200.00
C 413.03 209.09 414.03 218.17 416.00 227.00
C 402.19 230.52 389.01 235.98 375.07 239.07 C 361.14 242.17 348.22 248.85 334.02 251.02 C 319.83 253.20 311.83 261.59 303.75 272.75 C 295.67 283.92 289.08 291.92 280.75 302.75 C 272.42 313.58 267.36 322.28 258.25 333.25 C 249.14 344.22 251.75 361.33 253.00 376.00
C 273.78 367.72 310.05 371.36 314.00 398.00
C 304.44 393.44 297.42 385.00 286.22 383.78 C 275.02 382.55 260.47 381.60 251.25 389.25 C 242.03 396.90 239.94 406.72 237.78 417.78 C 235.62 428.84 237.96 443.14 241.68 453.32 C 245.40 463.51 249.94 472.13 256.23 480.77 C 262.52 489.41 268.17 495.44 276.75 502.25 C 285.34 509.05 294.21 512.64 305.00 516.00 C 315.79 519.36 325.02 512.68 332.00 504.00
C 331.31 513.52 332.56 526.26 323.25 531.25 C 313.94 536.23 304.93 539.49 297.00 531.00
C 299.92 557.84 305.54 585.19 308.00 612.00 C 310.46 638.81 314.63 669.21 310.00 695.00 C 305.37 720.78 312.07 747.68 328.08 766.92 C 344.10 786.16 359.62 794.79 382.32 803.68 C 405.02 812.57 438.12 814.09 463.00 812.00 C 487.88 809.91 514.37 802.85 535.92 792.92 C 557.48 783.00 574.47 772.58 592.25 758.25 C 610.03 743.91 622.51 728.38 636.00 711.00
C 617.35 714.44 599.76 716.72 581.22 721.22 C 562.69 725.72 539.58 720.05 521.00 720.00 C 502.42 719.95 483.94 716.39 469.23 706.77 C 454.52 697.15 441.36 693.69 427.23 684.77 C 413.10 675.85 397.00 673.20 388.31 658.70 C 379.61 644.19 374.27 631.80 364.75 617.25 C 355.24 602.70 347.37 589.89 346.99 571.01 C 346.61 552.12 341.43 531.64 341.00 512.00 C 340.57 492.36 337.86 470.87 337.00 451.00 C 336.14 431.13 333.57 410.99 333.00 391.00
C 345.49 392.07 362.66 392.04 364.01 405.99 C 365.36 419.95 370.45 429.41 373.07 441.93 C 375.69 454.44 380.72 464.60 383.68 476.32 C 386.64 488.04 397.76 491.57 405.75 499.25 C 413.74 506.92 422.97 512.70 431.75 519.25 C 440.53 525.80 448.86 532.40 458.92 537.08 C 468.99 541.76 479.54 546.63 489.77 551.23 C 500.00 555.83 510.43 561.23 521.00 565.00
C 527.39 555.37 530.13 539.90 538.77 531.77 C 547.41 523.64 557.98 517.74 567.77 510.77 C 577.56 503.80 590.54 498.24 601.98 493.98 C 613.41 489.71 627.65 482.97 640.00 484.00 C 652.35 485.03 675.92 481.95 686.75 488.25 C 697.58 494.55 701.27 507.16 710.00 515.00
C 715.60 491.86 712.96 463.18 715.00 439.00 C 717.04 414.82 701.45 395.34 711.00 372.00
C 703.42 368.82 704.64 380.38 702.00 385.00
C 695.75 385.04 690.06 386.74 684.00 385.00
C 682.00 377.56 680.50 370.05 681.00 362.00
C 675.56 362.33 670.47 363.91 665.00 364.00
C 669.68 375.44 674.08 388.36 679.70 399.31 C 685.31 410.25 689.24 422.85 696.08 432.92 C 702.91 443.00 701.05 460.76 690.70 466.70 C 680.35 472.63 670.14 486.54 658.08 479.92 C 646.02 473.30 630.70 474.50 617.00 472.00
C 627.19 466.96 642.85 456.22 655.33 460.67 C 667.81 465.13 684.14 463.72 689.03 450.03 C 693.91 436.33 679.14 428.88 676.31 416.69 C 673.47 404.51 662.96 392.75 660.98 381.02 C 659.00 369.30 646.33 354.81 652.25 344.25 C 658.17 333.68 665.20 321.39 676.99 317.99 C 688.78 314.59 704.70 310.82 717.00 308.00
C 706.32 278.47 696.19 248.68 686.00 219.00
M 620.00 313.00 
C 618.33 321.83 615.49 330.36 613.00 339.00
C 584.59 335.13 555.21 332.38 526.98 328.02 C 498.74 323.67 473.45 341.26 447.00 342.00
C 462.99 328.84 475.75 325.35 491.70 310.70 C 507.64 296.04 531.42 300.09 553.00 303.00 C 574.58 305.91 598.22 309.91 620.00 313.00
M 537.00 382.00 
C 534.15 381.81 531.90 381.01 529.00 381.00
C 530.77 378.97 534.48 380.47 537.00 380.00
C 538.26 379.69 539.72 380.24 541.00 380.00
C 538.63 372.30 537.16 364.30 537.00 356.00
C 515.36 356.60 496.25 376.02 475.00 370.00
C 486.60 361.46 496.34 358.09 509.68 351.68 C 523.01 345.27 538.86 344.67 554.00 342.00 C 569.14 339.33 581.57 345.10 588.00 360.00
C 579.46 357.82 572.14 357.16 571.00 365.00 C 569.86 372.84 569.66 379.93 562.97 382.97 C 556.28 386.02 544.23 379.55 537.00 382.00
M 302.00 454.00 
C 309.35 460.34 313.89 469.56 321.00 476.00
C 319.78 479.07 318.65 482.09 317.00 485.00
C 307.38 481.33 301.10 472.01 289.78 472.22 C 278.45 472.44 272.38 455.78 276.78 446.78 C 281.17 437.77 290.87 429.74 282.75 422.25 C 274.63 414.76 267.41 404.33 259.75 414.75 C 252.08 425.17 254.90 436.38 253.00 447.00
C 246.86 435.05 246.52 422.44 250.32 409.32 C 254.12 396.21 271.37 395.23 282.22 400.78 C 293.08 406.33 293.55 416.72 303.30 424.70 C 313.05 432.68 309.19 444.25 302.00 454.00
M 608.00 436.00 
C 596.03 448.65 597.21 467.35 608.00 480.00
C 593.22 486.03 587.00 471.07 587.00 459.00 C 587.00 446.93 597.01 438.57 608.00 436.00 Z"/>
</g>
<g fill="#080807" fill-opacity="1.00" stroke="None">
<path d="
M 620.00 313.00 
C 598.22 309.91 574.58 305.91 553.00 303.00 C 531.42 300.09 507.64 296.04 491.70 310.70 C 475.75 325.35 462.99 328.84 447.00 342.00
C 473.45 341.26 498.74 323.67 526.98 328.02 C 555.21 332.38 584.59 335.13 613.00 339.00
C 615.49 330.36 618.33 321.83 620.00 313.00 Z"/>
</g>
<g fill="#F8F7F7" fill-opacity="1.00" stroke="None">
<path d="
M 722.00 339.00 
C 711.56 338.35 699.51 339.76 690.00 342.00 C 680.49 344.24 669.91 341.87 667.00 353.00
C 682.61 351.93 705.56 342.83 715.00 360.00
C 716.74 352.79 719.96 346.07 722.00 339.00 Z"/>
</g>
<g fill="#070807" fill-opacity="1.00" stroke="None">
<path d="
M 537.00 380.00 
C 536.88 380.03 536.81 381.92 537.00 382.00
C 544.23 379.55 556.28 386.02 562.97 382.97 C 569.66 379.93 569.86 372.84 571.00 365.00 C 572.14 357.16 579.46 357.82 588.00 360.00
C 581.57 345.10 569.14 339.33 554.00 342.00 C 538.86 344.67 523.01 345.27 509.68 351.68 C 496.34 358.09 486.60 361.46 475.00 370.00
C 496.25 376.02 515.36 356.60 537.00 356.00
C 537.16 364.30 538.63 372.30 541.00 380.00
C 539.72 380.24 538.26 379.69 537.00 380.00 Z"/>
</g>
<g fill="#545655" fill-opacity="1.00" stroke="None">
<path d="
M 537.00 382.00 
C 536.81 381.92 536.88 380.03 537.00 380.00
C 534.48 380.47 530.77 378.97 529.00 381.00
C 531.90 381.01 534.15 381.81 537.00 382.00 Z"/>
</g>
<g fill="#070707" fill-opacity="1.00" stroke="None">
<path d="
M 302.00 454.00 
C 309.19 444.25 313.05 432.68 303.30 424.70 C 293.55 416.72 293.08 406.33 282.22 400.78 C 271.37 395.23 254.12 396.21 250.32 409.32 C 246.52 422.44 246.86 435.05 253.00 447.00
C 254.90 436.38 252.08 425.17 259.75 414.75 C 267.41 404.33 274.63 414.76 282.75 422.25 C 290.87 429.74 281.17 437.77 276.78 446.78 C 272.38 455.78 278.45 472.44 289.78 472.22 C 301.10 472.01 307.38 481.33 317.00 485.00
C 318.65 482.09 319.78 479.07 321.00 476.00
C 313.89 469.56 309.35 460.34 302.00 454.00 Z"/>
</g>
<g fill="#060605" fill-opacity="1.00" stroke="None">
<path d="
M 608.00 436.00 
C 597.01 438.57 587.00 446.93 587.00 459.00 C 587.00 471.07 593.22 486.03 608.00 480.00
C 597.21 467.35 596.03 448.65 608.00 436.00 Z"/>
</g>
<g fill="#FBFBFA" fill-opacity="1.00" stroke="None">
<path d="
M 690.00 598.00 
C 692.55 585.54 693.40 574.35 695.00 561.00 C 696.60 547.65 695.74 537.28 686.75 527.25 C 677.76 517.22 664.59 524.23 652.00 522.00 C 639.41 519.77 629.69 523.75 619.03 528.02 C 608.36 532.30 598.83 535.55 588.68 539.68 C 578.53 543.80 572.73 549.72 565.25 558.25 C 557.77 566.78 562.28 582.52 559.00 593.00
C 570.22 599.40 581.64 604.63 592.92 597.92 C 604.21 591.22 613.29 587.22 618.00 574.00
C 634.02 571.53 649.70 573.93 666.00 572.00 C 682.30 570.07 678.67 589.91 690.00 598.00
M 692.00 548.00 
C 654.24 549.27 614.49 550.59 578.00 552.00
C 596.09 545.98 614.20 535.92 634.00 536.00 C 653.80 536.08 679.73 527.67 692.00 548.00 Z"/>
</g>
<g fill="#060606" fill-opacity="1.00" stroke="None">
<path d="
M 692.00 548.00 
C 679.73 527.67 653.80 536.08 634.00 536.00 C 614.20 535.92 596.09 545.98 578.00 552.00
C 614.49 550.59 654.24 549.27 692.00 548.00 Z"/>
</g>
</svg>