<svg xmlns="http://www.w3.org/2000/svg" width="1024" height="1024"><path fill="none" fill-opacity="0" stroke="#FEFEFD" stroke-width=".3" d="M0 900c4.59-10.88 10.26-22.46 15.77-33.23 5.51-10.76 12.6-20.25 20.48-29.52 7.87-9.28 15.43-17.09 25.98-23.02s22-11.51 32.85-17.15c10.85-5.65 21.69-11.8 32.62-17.38 10.92-5.59 21.43-10.94 32.38-16.62 10.94-5.69 21.89-11.45 33-17 11.1-5.56 20.89-12.2 32.15-17.85s19.47-11.72 31-18 17.37-12.82 29.52-20.48 15.2-20.59 11.27-34.77c-3.92-14.19-.84-30.92-4.02-44.98s-2.95-30.54-5.93-44.07c-2.98-13.54-1.09-32.04-6.07-43.93-4.97-11.89-17.56-12.79-25.25-23.75-7.69-10.97-14.3-17.28-20.06-29.94-5.75-12.67-8.46-25.52-9.69-40.31s7.93-26.65 8-41-3.01-31.4-4-46-2.4-31.58-4-46-1.25-28.75 2.93-42.07 2.57-30.12 7.85-42.15c5.28-12.04 12.38-20.63 18.53-31.48 6.14-10.84 10.2-21.93 18.39-30.6 8.18-8.68 17.95-15.15 27-23 9.05-7.86 16.02-15.66 26.05-22.95 10.02-7.3 22.28-9.35 33.48-16.52S384.91 75.71 399 75s28.03-5.44 43-6c14.97-.55 32.83 1.59 48 2s33.1 1.16 48 2 31.81-.03 45.22 3.78c13.42 3.8 24.17 9.53 37 13 12.84 3.46 23.14 8.52 32.86 17.14 9.73 8.61 17.39 13.9 27.67 21.33 10.27 7.44 19.93 13.44 24.02 25.98s13.14 23.58 9.24 36.78c-3.9 13.19-6.5 24.58-13.26 35.74-6.77 11.15 8.17 22.99 9.57 34.93s11.31 24.17 14 36 14.57 22.76 11.75 35.39c-2.82 12.64-8.15 24.22-13.05 36.95-4.89 12.74-5.28 26.88-.69 40.65 4.59 13.78 4.48 29.39 2.67 44.33s.21 32.16-3 47-.72 29.46 0 44-4.47 29.39-5.33 43.67-2.66 31.71-4.67 45.33-12.66 21.25-16 34c38.97 15.43 77.53 34.83 116.22 50.78 38.7 15.94 77.54 36.62 116.01 51.99s71.88 36.74 95.77 72.23V0H0z"/><path fill="none" fill-opacity="0" stroke="#080808" stroke-width=".3" d="M0 900v124h1024V844c-23.89-35.49-57.3-56.86-95.77-72.23s-77.31-36.05-116.01-51.99C773.53 703.83 734.97 684.43 696 669c3.34-12.75 13.99-20.38 16-34s3.81-31.05 4.67-45.33 6.05-29.13 5.33-43.67-3.21-29.16 0-44 1.19-32.06 3-47 1.92-30.55-2.67-44.33c-4.59-13.77-4.2-27.91.69-40.65 4.9-12.73 10.23-24.31 13.05-36.95 2.82-12.63-9.06-23.56-11.75-35.39s-12.6-24.06-14-36-16.34-23.78-9.57-34.93c6.76-11.16 9.36-22.55 13.26-35.74 3.9-13.2-5.15-24.24-9.24-36.78s-13.75-18.54-24.02-25.98c-10.28-7.43-17.94-12.72-27.67-21.33-9.72-8.62-20.02-13.68-32.86-17.14-12.83-3.47-23.58-9.2-37-13C569.81 72.97 552.9 73.84 538 73a1745 1745 0 0 0-48-2c-15.17-.41-33.03-2.55-48-2-14.97.56-28.91 5.29-43 6s-27.57 4.06-38.77 11.23-23.46 9.22-33.48 16.52c-10.03 7.29-17 15.09-26.05 22.95-9.05 7.85-18.82 14.32-27 23-8.19 8.67-12.25 19.76-18.39 30.6-6.15 10.85-13.25 19.44-18.53 31.48-5.28 12.03-3.67 28.83-7.85 42.15S224.4 280.58 226 295s3.01 31.4 4 46 4.07 31.65 4 46-9.23 26.21-8 41 3.94 27.64 9.69 40.31c5.76 12.66 12.37 18.97 20.06 29.94 7.69 10.96 20.28 11.86 25.25 23.75 4.98 11.89 3.09 30.39 6.07 43.93 2.98 13.53 2.75 30.01 5.93 44.07s.1 30.79 4.02 44.98c3.93 14.18.88 27.11-11.27 34.77s-17.99 14.2-29.52 20.48-19.74 12.35-31 18-21.05 12.29-32.15 17.85c-11.11 5.55-22.06 11.31-33 17-10.95 5.68-21.46 11.03-32.38 16.62-10.93 5.58-21.77 11.73-32.62 17.38-10.85 5.64-22.3 11.22-32.85 17.15s-18.11 13.74-25.98 23.02c-7.88 9.27-14.97 18.76-20.48 29.52C10.26 877.54 4.59 889.12 0 900m686-681c10.19 29.68 20.32 59.47 31 89-12.3 2.82-28.22 6.59-40.01 9.99s-18.82 15.69-24.74 26.26c-5.92 10.56 6.75 25.05 8.73 36.77 1.98 11.73 12.49 23.49 15.33 35.67 2.83 12.19 17.6 19.64 12.72 33.34-4.89 13.69-21.22 15.1-33.7 10.64-12.48-4.45-28.14 6.29-38.33 11.33 13.7 2.5 29.02 1.3 41.08 7.92s22.27-7.29 32.62-13.22c10.35-5.94 12.21-23.7 5.38-33.78-6.84-10.07-10.77-22.67-16.38-33.61-5.62-10.95-10.02-23.87-14.7-35.31 5.47-.09 10.56-1.67 16-2-.5 8.05 1 15.56 3 23 6.06 1.74 11.75.04 18 0 2.64-4.62 1.42-16.18 9-13-9.55 23.34 6.04 42.82 4 67s.6 52.86-5 76c-8.73-7.84-12.42-20.45-23.25-26.75s-34.4-3.22-46.75-4.25-26.59 5.71-38.02 9.98c-11.44 4.26-24.42 9.82-34.21 16.79s-20.36 12.87-29 21S527.39 555.37 521 565c-10.57-3.77-21-9.17-31.23-13.77s-20.78-9.47-30.85-14.15c-10.06-4.68-18.39-11.28-27.17-17.83s-18.01-12.33-26-20c-7.99-7.68-19.11-11.21-22.07-22.93s-7.99-21.88-10.61-34.39c-2.62-12.52-7.71-21.98-9.06-35.94-1.35-13.95-18.52-13.92-31.01-14.99.57 19.99 3.14 40.13 4 60s3.57 41.36 4 61 5.61 40.12 5.99 59.01c.38 18.88 8.25 31.69 17.76 46.24 9.52 14.55 14.86 26.94 23.56 41.45 8.69 14.5 24.79 17.15 38.92 26.07s27.29 12.38 42 22S502.42 719.95 521 720s41.69 5.72 60.22 1.22c18.54-4.5 36.13-6.78 54.78-10.22-13.49 17.38-25.97 32.91-43.75 47.25-17.78 14.33-34.77 24.75-56.33 34.67-21.55 9.93-48.04 16.99-72.92 19.08s-57.98.57-80.68-8.32-38.22-17.52-54.24-36.76C312.07 747.68 305.37 720.78 310 695c4.63-25.79.46-56.19-2-83s-8.08-54.16-11-81c7.93 8.49 16.94 5.23 26.25.25 9.31-4.99 8.06-17.73 8.75-27.25-6.98 8.68-16.21 15.36-27 12s-19.66-6.95-28.25-13.75c-8.58-6.81-14.23-12.84-20.52-21.48s-10.83-17.26-14.55-27.45c-3.72-10.18-6.06-24.48-3.9-35.54s4.25-20.88 13.47-28.53 23.77-6.7 34.97-5.47c11.2 1.22 18.22 9.66 27.78 14.22-3.95-26.64-40.22-30.28-61-22-1.25-14.67-3.86-31.78 5.25-42.75s14.17-19.67 22.5-30.5 14.92-18.83 23-30c8.08-11.16 16.08-19.55 30.27-21.73 14.2-2.17 27.12-8.85 41.05-11.95 13.94-3.09 27.12-8.55 40.93-12.07-1.97-8.83-2.97-17.91-4-27 15.46 2.1 31.53 1.87 47 4-2.79-5.86-8.22-10.56-12-16 25.58 4.94 51.26 9.55 77 14-1.51-5.27-4.78-9.94-7-15 16.32 8.5 27.35 19.61 47.07 19.93 19.73.31 40.98 4.71 60.93 6.07s40.84 4.86 61 6m36 120c-2.04 7.07-5.26 13.79-7 21-9.44-17.17-32.39-8.07-48-7 2.91-11.13 13.49-8.76 23-11s21.56-3.65 32-3m-32 259c-11.33-8.09-7.7-27.93-24-26s-31.98-.47-48 2c-4.71 13.22-13.79 17.22-25.08 23.92-11.28 6.71-22.7 1.48-33.92-4.92 3.28-10.48-1.23-26.22 6.25-34.75s13.28-14.45 23.43-18.57c10.15-4.13 19.68-7.38 30.35-11.66 10.66-4.27 20.38-8.25 32.97-6.02s25.76-4.78 34.75 5.25 9.85 20.4 8.25 33.75-2.45 24.54-5 37Z"/><path fill="none" fill-opacity="0" stroke="#FCFCFB" stroke-width=".3" d="M686 219c-20.16-1.14-41.05-4.64-61-6s-41.2-5.76-60.93-6.07c-19.72-.32-30.75-11.43-47.07-19.93 2.22 5.06 5.49 9.73 7 15-25.74-4.45-51.42-9.06-77-14 3.78 5.44 9.21 10.14 12 16-15.47-2.13-31.54-1.9-47-4 1.03 9.09 2.03 18.17 4 27-13.81 3.52-26.99 8.98-40.93 12.07-13.93 3.1-26.85 9.78-41.05 11.95-14.19 2.18-22.19 10.57-30.27 21.73-8.08 11.17-14.67 19.17-23 30s-13.39 19.53-22.5 30.5-6.5 28.08-5.25 42.75c20.78-8.28 57.05-4.64 61 22-9.56-4.56-16.58-13-27.78-14.22-11.2-1.23-25.75-2.18-34.97 5.47s-11.31 17.47-13.47 28.53.18 25.36 3.9 35.54c3.72 10.19 8.26 18.81 14.55 27.45s11.94 14.67 20.52 21.48c8.59 6.8 17.46 10.39 28.25 13.75s20.02-3.32 27-12c-.69 9.52.56 22.26-8.75 27.25-9.31 4.98-18.32 8.24-26.25-.25 2.92 26.84 8.54 54.19 11 81s6.63 57.21 2 83c-4.63 25.78 2.07 52.68 18.08 71.92 16.02 19.24 31.54 27.87 54.24 36.76s55.8 10.41 80.68 8.32 51.37-9.15 72.92-19.08c21.56-9.92 38.55-20.34 56.33-34.67 17.78-14.34 30.26-29.87 43.75-47.25-18.65 3.44-36.24 5.72-54.78 10.22-18.53 4.5-41.64-1.17-60.22-1.22s-37.06-3.61-51.77-13.23-27.87-13.08-42-22S397 673.2 388.31 658.7c-8.7-14.51-14.04-26.9-23.56-41.45-9.51-14.55-17.38-27.36-17.76-46.24-.38-18.89-5.56-39.37-5.99-59.01s-3.14-41.13-4-61-3.43-40.01-4-60c12.49 1.07 29.66 1.04 31.01 14.99 1.35 13.96 6.44 23.42 9.06 35.94 2.62 12.51 7.65 22.67 10.61 34.39s14.08 15.25 22.07 22.93c7.99 7.67 17.22 13.45 26 20s17.11 13.15 27.17 17.83c10.07 4.68 20.62 9.55 30.85 14.15s20.66 10 31.23 13.77c6.39-9.63 9.13-25.1 17.77-33.23s19.21-14.03 29-21 22.77-12.53 34.21-16.79c11.43-4.27 25.67-11.01 38.02-9.98s35.92-2.05 46.75 4.25S701.27 507.16 710 515c5.6-23.14 2.96-51.82 5-76s-13.55-43.66-4-67c-7.58-3.18-6.36 8.38-9 13-6.25.04-11.94 1.74-18 0-2-7.44-3.5-14.95-3-23-5.44.33-10.53 1.91-16 2 4.68 11.44 9.08 24.36 14.7 35.31 5.61 10.94 9.54 23.54 16.38 33.61 6.83 10.08 4.97 27.84-5.38 33.78-10.35 5.93-20.56 19.84-32.62 13.22S630.7 474.5 617 472c10.19-5.04 25.85-15.78 38.33-11.33 12.48 4.46 28.81 3.05 33.7-10.64 4.88-13.7-9.89-21.15-12.72-33.34-2.84-12.18-13.35-23.94-15.33-35.67-1.98-11.72-14.65-26.21-8.73-36.77 5.92-10.57 12.95-22.86 24.74-26.26S704.7 310.82 717 308c-10.68-29.53-20.81-59.32-31-89m-66 94c-1.67 8.83-4.51 17.36-7 26-28.41-3.87-57.79-6.62-86.02-10.98-28.24-4.35-53.53 13.24-79.98 13.98 15.99-13.16 28.75-16.65 44.7-31.3 15.94-14.66 39.72-10.61 61.3-7.7s45.22 6.91 67 10m-83 69c-2.85-.19-5.1-.99-8-1 1.77-2.03 5.48-.53 8-1 1.26-.31 2.72.24 4 0-2.37-7.7-3.84-15.7-4-24-21.64.6-40.75 20.02-62 14 11.6-8.54 21.34-11.91 34.68-18.32 13.33-6.41 29.18-7.01 44.32-9.68s27.57 3.1 34 18c-8.54-2.18-15.86-2.84-17 5s-1.34 14.93-8.03 17.97c-6.69 3.05-18.74-3.42-25.97-.97m-235 72c7.35 6.34 11.89 15.56 19 22-1.22 3.07-2.35 6.09-4 9-9.62-3.67-15.9-12.99-27.22-12.78-11.33.22-17.4-16.44-13-25.44 4.39-9.01 14.09-17.04 5.97-24.53s-15.34-17.92-23-7.5c-7.67 10.42-4.85 21.63-6.75 32.25-6.14-11.95-6.48-24.56-2.68-37.68 3.8-13.11 21.05-14.09 31.9-8.54 10.86 5.55 11.33 15.94 21.08 23.92s5.89 19.55-1.3 29.3m306-18c-11.97 12.65-10.79 31.35 0 44-14.78 6.03-21-8.93-21-21s10.01-20.43 21-23Z"/><path fill="none" fill-opacity="0" stroke="#080807" stroke-width=".3" d="M620 313c-21.78-3.09-45.42-7.09-67-10s-45.36-6.96-61.3 7.7c-15.95 14.65-28.71 18.14-44.7 31.3 26.45-.74 51.74-18.33 79.98-13.98 28.23 4.36 57.61 7.11 86.02 10.98 2.49-8.64 5.33-17.17 7-26Z"/><path fill="none" fill-opacity="0" stroke="#F8F7F7" stroke-width=".3" d="M722 339c-10.44-.65-22.49.76-32 3s-20.09-.13-23 11c15.61-1.07 38.56-10.17 48 7 1.74-7.21 4.96-13.93 7-21Z"/><path fill="none" fill-opacity="0" stroke="#070807" stroke-width=".3" d="M537 380c-.12.03-.19 1.92 0 2 7.23-2.45 19.28 4.02 25.97.97 6.69-3.04 6.89-10.13 8.03-17.97s8.46-7.18 17-5c-6.43-14.9-18.86-20.67-34-18s-30.99 3.27-44.32 9.68c-13.34 6.41-23.08 9.78-34.68 18.32 21.25 6.02 40.36-13.4 62-14 .16 8.3 1.63 16.3 4 24-1.28.24-2.74-.31-4 0Z"/><path fill="none" fill-opacity="0" stroke="#545655" stroke-width=".3" d="M537 382c-.19-.08-.12-1.97 0-2-2.52.47-6.23-1.03-8 1 2.9.01 5.15.81 8 1Z"/><path fill="none" fill-opacity="0" stroke="#070707" stroke-width=".3" d="M302 454c7.19-9.75 11.05-21.32 1.3-29.3s-10.22-18.37-21.08-23.92c-10.85-5.55-28.1-4.57-31.9 8.54-3.8 13.12-3.46 25.73 2.68 37.68 1.9-10.62-.92-21.83 6.75-32.25 7.66-10.42 14.88.01 23 7.5s-1.58 15.52-5.97 24.53c-4.4 9 1.67 25.66 13 25.44 11.32-.21 17.6 9.11 27.22 12.78 1.65-2.91 2.78-5.93 4-9-7.11-6.44-11.65-15.66-19-22Z"/><path fill="none" fill-opacity="0" stroke="#060605" stroke-width=".3" d="M608 436c-10.99 2.57-21 10.93-21 23s6.22 27.03 21 21c-10.79-12.65-11.97-31.35 0-44Z"/><path fill="none" fill-opacity="0" stroke="#FBFBFA" stroke-width=".3" d="M690 598c2.55-12.46 3.4-23.65 5-37s.74-23.72-8.25-33.75-22.16-3.02-34.75-5.25-22.31 1.75-32.97 6.02c-10.67 4.28-20.2 7.53-30.35 11.66-10.15 4.12-15.95 10.04-23.43 18.57S562.28 582.52 559 593c11.22 6.4 22.64 11.63 33.92 4.92 11.29-6.7 20.37-10.7 25.08-23.92 16.02-2.47 31.7-.07 48-2s12.67 17.91 24 26m2-50c-37.76 1.27-77.51 2.59-114 4 18.09-6.02 36.2-16.08 56-16s45.73-8.33 58 12Z"/><path fill="none" fill-opacity="0" stroke="#060606" stroke-width=".3" d="M692 548c-12.27-20.33-38.2-11.92-58-12s-37.91 9.98-56 16c36.49-1.41 76.24-2.73 114-4Z"/><path fill="#FEFEFD" stroke="None" d="M0 900c4.59-10.88 10.26-22.46 15.77-33.23 5.51-10.76 12.6-20.25 20.48-29.52 7.87-9.28 15.43-17.09 25.98-23.02s22-11.51 32.85-17.15c10.85-5.65 21.69-11.8 32.62-17.38 10.92-5.59 21.43-10.94 32.38-16.62 10.94-5.69 21.89-11.45 33-17 11.1-5.56 20.89-12.2 32.15-17.85s19.47-11.72 31-18 17.37-12.82 29.52-20.48 15.2-20.59 11.27-34.77c-3.92-14.19-.84-30.92-4.02-44.98s-2.95-30.54-5.93-44.07c-2.98-13.54-1.09-32.04-6.07-43.93-4.97-11.89-17.56-12.79-25.25-23.75-7.69-10.97-14.3-17.28-20.06-29.94-5.75-12.67-8.46-25.52-9.69-40.31s7.93-26.65 8-41-3.01-31.4-4-46-2.4-31.58-4-46-1.25-28.75 2.93-42.07 2.57-30.12 7.85-42.15c5.28-12.04 12.38-20.63 18.53-31.48 6.14-10.84 10.2-21.93 18.39-30.6 8.18-8.68 17.95-15.15 27-23 9.05-7.86 16.02-15.66 26.05-22.95 10.02-7.3 22.28-9.35 33.48-16.52S384.91 75.71 399 75s28.03-5.44 43-6c14.97-.55 32.83 1.59 48 2s33.1 1.16 48 2 31.81-.03 45.22 3.78c13.42 3.8 24.17 9.53 37 13 12.84 3.46 23.14 8.52 32.86 17.14 9.73 8.61 17.39 13.9 27.67 21.33 10.27 7.44 19.93 13.44 24.02 25.98s13.14 23.58 9.24 36.78c-3.9 13.19-6.5 24.58-13.26 35.74-6.77 11.15 8.17 22.99 9.57 34.93s11.31 24.17 14 36 14.57 22.76 11.75 35.39c-2.82 12.64-8.15 24.22-13.05 36.95-4.89 12.74-5.28 26.88-.69 40.65 4.59 13.78 4.48 29.39 2.67 44.33s.21 32.16-3 47-.72 29.46 0 44-4.47 29.39-5.33 43.67-2.66 31.71-4.67 45.33-12.66 21.25-16 34c38.97 15.43 77.53 34.83 116.22 50.78 38.7 15.94 77.54 36.62 116.01 51.99s71.88 36.74 95.77 72.23V0H0z"/><path fill="#080808" stroke="None" d="M0 900v124h1024V844c-23.89-35.49-57.3-56.86-95.77-72.23s-77.31-36.05-116.01-51.99C773.53 703.83 734.97 684.43 696 669c3.34-12.75 13.99-20.38 16-34s3.81-31.05 4.67-45.33 6.05-29.13 5.33-43.67-3.21-29.16 0-44 1.19-32.06 3-47 1.92-30.55-2.67-44.33c-4.59-13.77-4.2-27.91.69-40.65 4.9-12.73 10.23-24.31 13.05-36.95 2.82-12.63-9.06-23.56-11.75-35.39s-12.6-24.06-14-36-16.34-23.78-9.57-34.93c6.76-11.16 9.36-22.55 13.26-35.74 3.9-13.2-5.15-24.24-9.24-36.78s-13.75-18.54-24.02-25.98c-10.28-7.43-17.94-12.72-27.67-21.33-9.72-8.62-20.02-13.68-32.86-17.14-12.83-3.47-23.58-9.2-37-13C569.81 72.97 552.9 73.84 538 73a1745 1745 0 0 0-48-2c-15.17-.41-33.03-2.55-48-2-14.97.56-28.91 5.29-43 6s-27.57 4.06-38.77 11.23-23.46 9.22-33.48 16.52c-10.03 7.29-17 15.09-26.05 22.95-9.05 7.85-18.82 14.32-27 23-8.19 8.67-12.25 19.76-18.39 30.6-6.15 10.85-13.25 19.44-18.53 31.48-5.28 12.03-3.67 28.83-7.85 42.15S224.4 280.58 226 295s3.01 31.4 4 46 4.07 31.65 4 46-9.23 26.21-8 41 3.94 27.64 9.69 40.31c5.76 12.66 12.37 18.97 20.06 29.94 7.69 10.96 20.28 11.86 25.25 23.75 4.98 11.89 3.09 30.39 6.07 43.93 2.98 13.53 2.75 30.01 5.93 44.07s.1 30.79 4.02 44.98c3.93 14.18.88 27.11-11.27 34.77s-17.99 14.2-29.52 20.48-19.74 12.35-31 18-21.05 12.29-32.15 17.85c-11.11 5.55-22.06 11.31-33 17-10.95 5.68-21.46 11.03-32.38 16.62-10.93 5.58-21.77 11.73-32.62 17.38-10.85 5.64-22.3 11.22-32.85 17.15s-18.11 13.74-25.98 23.02c-7.88 9.27-14.97 18.76-20.48 29.52C10.26 877.54 4.59 889.12 0 900m686-681c10.19 29.68 20.32 59.47 31 89-12.3 2.82-28.22 6.59-40.01 9.99s-18.82 15.69-24.74 26.26c-5.92 10.56 6.75 25.05 8.73 36.77 1.98 11.73 12.49 23.49 15.33 35.67 2.83 12.19 17.6 19.64 12.72 33.34-4.89 13.69-21.22 15.1-33.7 10.64-12.48-4.45-28.14 6.29-38.33 11.33 13.7 2.5 29.02 1.3 41.08 7.92s22.27-7.29 32.62-13.22c10.35-5.94 12.21-23.7 5.38-33.78-6.84-10.07-10.77-22.67-16.38-33.61-5.62-10.95-10.02-23.87-14.7-35.31 5.47-.09 10.56-1.67 16-2-.5 8.05 1 15.56 3 23 6.06 1.74 11.75.04 18 0 2.64-4.62 1.42-16.18 9-13-9.55 23.34 6.04 42.82 4 67s.6 52.86-5 76c-8.73-7.84-12.42-20.45-23.25-26.75s-34.4-3.22-46.75-4.25-26.59 5.71-38.02 9.98c-11.44 4.26-24.42 9.82-34.21 16.79s-20.36 12.87-29 21S527.39 555.37 521 565c-10.57-3.77-21-9.17-31.23-13.77s-20.78-9.47-30.85-14.15c-10.06-4.68-18.39-11.28-27.17-17.83s-18.01-12.33-26-20c-7.99-7.68-19.11-11.21-22.07-22.93s-7.99-21.88-10.61-34.39c-2.62-12.52-7.71-21.98-9.06-35.94-1.35-13.95-18.52-13.92-31.01-14.99.57 19.99 3.14 40.13 4 60s3.57 41.36 4 61 5.61 40.12 5.99 59.01c.38 18.88 8.25 31.69 17.76 46.24 9.52 14.55 14.86 26.94 23.56 41.45 8.69 14.5 24.79 17.15 38.92 26.07s27.29 12.38 42 22S502.42 719.95 521 720s41.69 5.72 60.22 1.22c18.54-4.5 36.13-6.78 54.78-10.22-13.49 17.38-25.97 32.91-43.75 47.25-17.78 14.33-34.77 24.75-56.33 34.67-21.55 9.93-48.04 16.99-72.92 19.08s-57.98.57-80.68-8.32-38.22-17.52-54.24-36.76C312.07 747.68 305.37 720.78 310 695c4.63-25.79.46-56.19-2-83s-8.08-54.16-11-81c7.93 8.49 16.94 5.23 26.25.25 9.31-4.99 8.06-17.73 8.75-27.25-6.98 8.68-16.21 15.36-27 12s-19.66-6.95-28.25-13.75c-8.58-6.81-14.23-12.84-20.52-21.48s-10.83-17.26-14.55-27.45c-3.72-10.18-6.06-24.48-3.9-35.54s4.25-20.88 13.47-28.53 23.77-6.7 34.97-5.47c11.2 1.22 18.22 9.66 27.78 14.22-3.95-26.64-40.22-30.28-61-22-1.25-14.67-3.86-31.78 5.25-42.75s14.17-19.67 22.5-30.5 14.92-18.83 23-30c8.08-11.16 16.08-19.55 30.27-21.73 14.2-2.17 27.12-8.85 41.05-11.95 13.94-3.09 27.12-8.55 40.93-12.07-1.97-8.83-2.97-17.91-4-27 15.46 2.1 31.53 1.87 47 4-2.79-5.86-8.22-10.56-12-16 25.58 4.94 51.26 9.55 77 14-1.51-5.27-4.78-9.94-7-15 16.32 8.5 27.35 19.61 47.07 19.93 19.73.31 40.98 4.71 60.93 6.07s40.84 4.86 61 6m36 120c-2.04 7.07-5.26 13.79-7 21-9.44-17.17-32.39-8.07-48-7 2.91-11.13 13.49-8.76 23-11s21.56-3.65 32-3m-32 259c-11.33-8.09-7.7-27.93-24-26s-31.98-.47-48 2c-4.71 13.22-13.79 17.22-25.08 23.92-11.28 6.71-22.7 1.48-33.92-4.92 3.28-10.48-1.23-26.22 6.25-34.75s13.28-14.45 23.43-18.57c10.15-4.13 19.68-7.38 30.35-11.66 10.66-4.27 20.38-8.25 32.97-6.02s25.76-4.78 34.75 5.25 9.85 20.4 8.25 33.75-2.45 24.54-5 37Z"/><path fill="#FCFCFB" stroke="None" d="M686 219c-20.16-1.14-41.05-4.64-61-6s-41.2-5.76-60.93-6.07c-19.72-.32-30.75-11.43-47.07-19.93 2.22 5.06 5.49 9.73 7 15-25.74-4.45-51.42-9.06-77-14 3.78 5.44 9.21 10.14 12 16-15.47-2.13-31.54-1.9-47-4 1.03 9.09 2.03 18.17 4 27-13.81 3.52-26.99 8.98-40.93 12.07-13.93 3.1-26.85 9.78-41.05 11.95-14.19 2.18-22.19 10.57-30.27 21.73-8.08 11.17-14.67 19.17-23 30s-13.39 19.53-22.5 30.5-6.5 28.08-5.25 42.75c20.78-8.28 57.05-4.64 61 22-9.56-4.56-16.58-13-27.78-14.22-11.2-1.23-25.75-2.18-34.97 5.47s-11.31 17.47-13.47 28.53.18 25.36 3.9 35.54c3.72 10.19 8.26 18.81 14.55 27.45s11.94 14.67 20.52 21.48c8.59 6.8 17.46 10.39 28.25 13.75s20.02-3.32 27-12c-.69 9.52.56 22.26-8.75 27.25-9.31 4.98-18.32 8.24-26.25-.25 2.92 26.84 8.54 54.19 11 81s6.63 57.21 2 83c-4.63 25.78 2.07 52.68 18.08 71.92 16.02 19.24 31.54 27.87 54.24 36.76s55.8 10.41 80.68 8.32 51.37-9.15 72.92-19.08c21.56-9.92 38.55-20.34 56.33-34.67 17.78-14.34 30.26-29.87 43.75-47.25-18.65 3.44-36.24 5.72-54.78 10.22-18.53 4.5-41.64-1.17-60.22-1.22s-37.06-3.61-51.77-13.23-27.87-13.08-42-22S397 673.2 388.31 658.7c-8.7-14.51-14.04-26.9-23.56-41.45-9.51-14.55-17.38-27.36-17.76-46.24-.38-18.89-5.56-39.37-5.99-59.01s-3.14-41.13-4-61-3.43-40.01-4-60c12.49 1.07 29.66 1.04 31.01 14.99 1.35 13.96 6.44 23.42 9.06 35.94 2.62 12.51 7.65 22.67 10.61 34.39s14.08 15.25 22.07 22.93c7.99 7.67 17.22 13.45 26 20s17.11 13.15 27.17 17.83c10.07 4.68 20.62 9.55 30.85 14.15s20.66 10 31.23 13.77c6.39-9.63 9.13-25.1 17.77-33.23s19.21-14.03 29-21 22.77-12.53 34.21-16.79c11.43-4.27 25.67-11.01 38.02-9.98s35.92-2.05 46.75 4.25S701.27 507.16 710 515c5.6-23.14 2.96-51.82 5-76s-13.55-43.66-4-67c-7.58-3.18-6.36 8.38-9 13-6.25.04-11.94 1.74-18 0-2-7.44-3.5-14.95-3-23-5.44.33-10.53 1.91-16 2 4.68 11.44 9.08 24.36 14.7 35.31 5.61 10.94 9.54 23.54 16.38 33.61 6.83 10.08 4.97 27.84-5.38 33.78-10.35 5.93-20.56 19.84-32.62 13.22S630.7 474.5 617 472c10.19-5.04 25.85-15.78 38.33-11.33 12.48 4.46 28.81 3.05 33.7-10.64 4.88-13.7-9.89-21.15-12.72-33.34-2.84-12.18-13.35-23.94-15.33-35.67-1.98-11.72-14.65-26.21-8.73-36.77 5.92-10.57 12.95-22.86 24.74-26.26S704.7 310.82 717 308c-10.68-29.53-20.81-59.32-31-89m-66 94c-1.67 8.83-4.51 17.36-7 26-28.41-3.87-57.79-6.62-86.02-10.98-28.24-4.35-53.53 13.24-79.98 13.98 15.99-13.16 28.75-16.65 44.7-31.3 15.94-14.66 39.72-10.61 61.3-7.7s45.22 6.91 67 10m-83 69c-2.85-.19-5.1-.99-8-1 1.77-2.03 5.48-.53 8-1 1.26-.31 2.72.24 4 0-2.37-7.7-3.84-15.7-4-24-21.64.6-40.75 20.02-62 14 11.6-8.54 21.34-11.91 34.68-18.32 13.33-6.41 29.18-7.01 44.32-9.68s27.57 3.1 34 18c-8.54-2.18-15.86-2.84-17 5s-1.34 14.93-8.03 17.97c-6.69 3.05-18.74-3.42-25.97-.97m-235 72c7.35 6.34 11.89 15.56 19 22-1.22 3.07-2.35 6.09-4 9-9.62-3.67-15.9-12.99-27.22-12.78-11.33.22-17.4-16.44-13-25.44 4.39-9.01 14.09-17.04 5.97-24.53s-15.34-17.92-23-7.5c-7.67 10.42-4.85 21.63-6.75 32.25-6.14-11.95-6.48-24.56-2.68-37.68 3.8-13.11 21.05-14.09 31.9-8.54 10.86 5.55 11.33 15.94 21.08 23.92s5.89 19.55-1.3 29.3m306-18c-11.97 12.65-10.79 31.35 0 44-14.78 6.03-21-8.93-21-21s10.01-20.43 21-23Z"/><path fill="#080807" stroke="None" d="M620 313c-21.78-3.09-45.42-7.09-67-10s-45.36-6.96-61.3 7.7c-15.95 14.65-28.71 18.14-44.7 31.3 26.45-.74 51.74-18.33 79.98-13.98 28.23 4.36 57.61 7.11 86.02 10.98 2.49-8.64 5.33-17.17 7-26Z"/><path fill="#F8F7F7" stroke="None" d="M722 339c-10.44-.65-22.49.76-32 3s-20.09-.13-23 11c15.61-1.07 38.56-10.17 48 7 1.74-7.21 4.96-13.93 7-21Z"/><path fill="#070807" stroke="None" d="M537 380c-.12.03-.19 1.92 0 2 7.23-2.45 19.28 4.02 25.97.97 6.69-3.04 6.89-10.13 8.03-17.97s8.46-7.18 17-5c-6.43-14.9-18.86-20.67-34-18s-30.99 3.27-44.32 9.68c-13.34 6.41-23.08 9.78-34.68 18.32 21.25 6.02 40.36-13.4 62-14 .16 8.3 1.63 16.3 4 24-1.28.24-2.74-.31-4 0Z"/><path fill="#545655" stroke="None" d="M537 382c-.19-.08-.12-1.97 0-2-2.52.47-6.23-1.03-8 1 2.9.01 5.15.81 8 1Z"/><path fill="#070707" stroke="None" d="M302 454c7.19-9.75 11.05-21.32 1.3-29.3s-10.22-18.37-21.08-23.92c-10.85-5.55-28.1-4.57-31.9 8.54-3.8 13.12-3.46 25.73 2.68 37.68 1.9-10.62-.92-21.83 6.75-32.25 7.66-10.42 14.88.01 23 7.5s-1.58 15.52-5.97 24.53c-4.4 9 1.67 25.66 13 25.44 11.32-.21 17.6 9.11 27.22 12.78 1.65-2.91 2.78-5.93 4-9-7.11-6.44-11.65-15.66-19-22Z"/><path fill="#060605" stroke="None" d="M608 436c-10.99 2.57-21 10.93-21 23s6.22 27.03 21 21c-10.79-12.65-11.97-31.35 0-44Z"/><path fill="#FBFBFA" stroke="None" d="M690 598c2.55-12.46 3.4-23.65 5-37s.74-23.72-8.25-33.75-22.16-3.02-34.75-5.25-22.31 1.75-32.97 6.02c-10.67 4.28-20.2 7.53-30.35 11.66-10.15 4.12-15.95 10.04-23.43 18.57S562.28 582.52 559 593c11.22 6.4 22.64 11.63 33.92 4.92 11.29-6.7 20.37-10.7 25.08-23.92 16.02-2.47 31.7-.07 48-2s12.67 17.91 24 26m2-50c-37.76 1.27-77.51 2.59-114 4 18.09-6.02 36.2-16.08 56-16s45.73-8.33 58 12Z"/><path fill="#060606" stroke="None" d="M692 548c-12.27-20.33-38.2-11.92-58-12s-37.91 9.98-56 16c36.49-1.41 76.24-2.73 114-4Z"/></svg>